<?xml version="1.0" standalone="no"?><!DOCTYPE svg PUBLIC "-//W3C//DTD SVG 1.1//EN" "http://www.w3.org/Graphics/SVG/1.1/DTD/svg11.dtd"><svg t="1653012660861" class="icon" viewBox="0 0 1024 1024" version="1.1" xmlns="http://www.w3.org/2000/svg" p-id="2214" xmlns:xlink="http://www.w3.org/1999/xlink" width="200" height="200"><defs><style type="text/css">@font-face { font-family: feedback-iconfont; src: url("//at.alicdn.com/t/font_1031158_u69w8yhxdu.woff2?t=1630033759944") format("woff2"), url("//at.alicdn.com/t/font_1031158_u69w8yhxdu.woff?t=1630033759944") format("woff"), url("//at.alicdn.com/t/font_1031158_u69w8yhxdu.ttf?t=1630033759944") format("truetype"); }
</style></defs><path d="M899.552 160.704l-38.88-116.96A63.872 63.872 0 0 0 800 0H224a64 64 0 0 0-60.736 43.744L124.064 160.768C90.656 162.912 64 190.048 64 224v96a64 64 0 0 0 64 64h33.088c0 2.4-0.96 4.672-0.672 7.072l64 576A64 64 0 0 0 288 1024h448c32.64 0 60-24.576 63.552-56.928l64-576c0.32-2.4-0.672-4.672-0.672-7.072H896a64 64 0 0 0 64-64V224c0-34.08-26.88-61.344-60.448-63.296zM224 64h576l32 96H192l32-96z m64 896l-10.656-96h469.312L736 960H288z m462.176-128H273.76L238.208 512h547.552l-35.584 320z m39.136-352H234.656L224 384h576l-10.688 96zM896 320H128V224h768v96z" fill="#707070" p-id="2215"></path></svg>