<?xml version="1.0" standalone="no"?><!DOCTYPE svg PUBLIC "-//W3C//DTD SVG 1.1//EN" "http://www.w3.org/Graphics/SVG/1.1/DTD/svg11.dtd"><svg t="1658043872007" class="icon" viewBox="0 0 1024 1024" version="1.1" xmlns="http://www.w3.org/2000/svg" p-id="3548" width="32" height="32" xmlns:xlink="http://www.w3.org/1999/xlink"><defs><style type="text/css">@font-face { font-family: feedback-iconfont; src: url("//at.alicdn.com/t/font_1031158_u69w8yhxdu.woff2?t=1630033759944") format("woff2"), url("//at.alicdn.com/t/font_1031158_u69w8yhxdu.woff?t=1630033759944") format("woff"), url("//at.alicdn.com/t/font_1031158_u69w8yhxdu.ttf?t=1630033759944") format("truetype"); }
</style></defs><path d="M943.2 312.4c-15.5-15.6-36.1-24.2-58.1-24.2-21.7 0-42.2 8.4-57.6 23.7-15.4 15.2-24 35.6-24.2 57.3 0 10.4 2.1 20.9 6.1 30.5l-122.6 74.1c-30.9-55.5-62.3-111.7-93.4-167.4l-26.7-48.2c17.2-15.2 26.9-36.7 26.9-59.9 0-45-36.6-81.6-81.6-81.6s-81.6 36.6-81.6 81.6c0 23.6 10.6 46.2 28.4 61.5l-10.2 18.3-15.6 28.5c-29.5 53.1-61.1 110.1-93.3 167.2L320 461.5l-11.6-6.9-57.4-35.1-37.2-22.5c4.6-10.3 7-21.5 7-32.8v-0.2c-0.8-21.3-9.6-41.1-25-55.9-15.3-14.7-35.4-22.8-56.6-22.8-1 0-2 0-3 0.1-42.7 1.5-77.3 36.2-78.7 78.9v0.2c0.3 37.5 26.4 69.9 62.6 78.4l87.2 295.9 0.7 2.4c0.6 1.9 1.1 3.8 1.6 5.7l0.2 0.8c4.5 16.4 10 36.8 32.7 37h538.8c27 0 32.2-21.5 35.6-35.9l0.5-1.9c0.6-2.6 1.3-5.4 2.1-8l86.7-292.3c35.1-9.4 59.7-40.7 60.3-77.4 0.1-21.1-8.3-41.8-23.3-56.8z m-81.1 56c0.3-12.7 10.8-23 23.5-23h0.5c12.9 0.3 23.2 10.9 23 23.8-0.1 11.8-8.9 21.6-20.3 23.3l-3.7-0.1c-13-0.2-23.3-11-23-24z m-93.8 350.2v0.4c-0.6 4.6-0.8 9.2-0.6 13.8H262.8c0.5-3 0.6-6.1 0.1-9.1l-0.1-0.4-72.2-244.8c-2.3-8-4.7-16-7-23.8-0.8-2.7-3.1-10.5-3.1-10.5l98.3 59.3 11.4 6.9c10 6.1 21.8 13.2 33.5 20.1 6.9 4.5 14.9 6.9 23.2 6.9 3.5 0 7-0.4 10.4-1.3h0.1c11.2-3.1 20.6-10.8 25.8-21.1 35-62.9 70.7-127.1 101.4-182.3l23-41.3 6-10.8 30 53.9c32.6 58.4 65.5 117.7 97.9 176.3 5.5 12 15.8 21.3 28.4 25.4l0.2 0.1h0.2c3.1 0.8 6.3 1.3 9.5 1.3h0.4c9.8-0.5 19.3-3.7 27.5-9.2L847 444.3l-31.2 106.8-0.5-0.1-25.8 87.7-21.2 79.9zM535.5 199.1c-0.2 12.7-10.8 23.1-23.5 23.1h-0.4c-12.7-0.2-23.1-10.8-23.1-23.5 0.2-13 10.9-23.6 23.9-23.6h0.1c12.8 0.2 23.2 11 23 24zM139.4 388c-13-0.2-23.5-10.9-23.3-24 0.2-12.8 10.8-23.3 23.6-23.3h0.4c12.9 0.2 23.3 10.8 23.3 23.7 0 6.1-2.6 12.1-6.9 16.3l-3.2 3.1c-4 2.7-8.6 4.1-13.5 4.1l-0.4 0.1zM736.6 903.3H287.4c-17.6 0-32-14.4-32-32s14.4-32 32-32h449.2c17.6 0 32 14.4 32 32s-14.4 32-32 32z" fill="#f97070" p-id="3549"></path></svg>