<?xml version="1.0" standalone="no"?><!DOCTYPE svg PUBLIC "-//W3C//DTD SVG 1.1//EN" "http://www.w3.org/Graphics/SVG/1.1/DTD/svg11.dtd"><svg t="1658044178666" class="icon" viewBox="0 0 1024 1024" version="1.1" xmlns="http://www.w3.org/2000/svg" p-id="23458" width="32" height="32" xmlns:xlink="http://www.w3.org/1999/xlink"><defs><style type="text/css">@font-face { font-family: feedback-iconfont; src: url("//at.alicdn.com/t/font_1031158_u69w8yhxdu.woff2?t=1630033759944") format("woff2"), url("//at.alicdn.com/t/font_1031158_u69w8yhxdu.woff?t=1630033759944") format("woff"), url("//at.alicdn.com/t/font_1031158_u69w8yhxdu.ttf?t=1630033759944") format("truetype"); }
</style></defs><path d="M693.1 538.9l-12.3-18.2c-13.4-22.7-15-48.2-17-73.3l-4.7-59.7c-2.9-78.2-61.4-142.7-138.5-147.5 2.1-17.4 1.5-34.9-1.6-51.9 26.3 40.7 73.5 67.8 127.4 67.8 34.6 0 66.5-11.2 91.8-30 3-2.2 4-6.1 2.8-9.5-20-56.1-75.8-96.5-141.6-96.5-34.6 0-66.5 11.2-91.8 30l-0.2 0.2c-13.6-31.3-36.6-59-67.8-78.3-8.8-5.4-17.9-10-27.2-13.7-3.9-1.6-8.4-0.1-10.6 3.5-2.8 4.6-0.9 10.6 4.1 12.6 8.4 3.3 16.6 7.4 24.5 12.4 53.9 33.4 80.4 94.2 72.7 153.3-80.9 0.8-143.4 66.9-146.4 147.8l-4.7 59.7c-2 25.1-3.6 50.7-17 73.3l-12.3 18.2c-64 78.2-103.6 112.3-95.9 209.8 9.8 123.3 129.7 196.1 259.7 197.6 7.2 0.1 14.3 0 21.4-0.1 7.1 0.1 14.2 0.2 21.4 0.1 130-1.5 249.9-74.3 259.7-197.6 7.8-97.7-31.8-131.8-95.9-210zM526 155c21.4-15.1 48.1-21.8 77-21.8 54.6 0 103.1 33.4 120 78 1.3 3.6 0.1 7.6-3 9.8-21.4 14.9-48.1 19.8-77 19.8-55.5 0-102.7-29.2-120-76-1.3-3.6-0.1-7.6 3-9.8z m231.9 588.4c-8.3 104.8-121.3 169.7-231.7 171-6.1 0.1-12.2 0-18.2-0.1-6 0.1-12 0.2-18.2 0.1-98.2-1.1-248.8-74.3-231.7-209 6.6-52 53.1-105.5 95.5-157.4l10.4-15.4c11.4-19.3 12.7-43.9 14.4-65.3l4-50.8c3.1-82.5 31.4-146.7 122.7-146.7h5.6c69.4 0 119.1 62.5 121.7 131.7l7 69.8c1.7 21.4 5.1 47.1 16.4 66.3l10.4 15.4c54.6 66.5 98.3 107.5 91.7 190.4z" fill="#f97070" p-id="23459"></path><path d="M520 312c40.8 0 74 33.1 74 74 0 3.6-0.3 7.1-0.8 10.6-0.6 3.9 2.5 7.4 6.5 7.4 3.2 0 6-2.4 6.5-5.6 0.6-4.1 0.9-8.2 0.9-12.4 0-48-39-87-87-87h-1.6c-3.6 0.1-6.4 3-6.4 6.5 0 3.6 3 6.6 6.6 6.5 0.4 0.1 0.8 0 1.3 0zM659.6 712c-3 0-5.4 2.4-5.4 5.4v0.1c0 73.3-59.4 132.8-132.8 132.8h-0.1c-3 0-5.4 2.4-5.4 5.4v4c0 2.9 2.4 5.4 5.3 5.4h0.2C603 865 669 799 669 717.5v-0.2c0-2.9-2.4-5.3-5.4-5.3h-4z" fill="#f97070" p-id="23460"></path></svg>