<?xml version="1.0" standalone="no"?><!DOCTYPE svg PUBLIC "-//W3C//DTD SVG 1.1//EN" "http://www.w3.org/Graphics/SVG/1.1/DTD/svg11.dtd"><svg t="1658044397854" class="icon" viewBox="0 0 1024 1024" version="1.1" xmlns="http://www.w3.org/2000/svg" p-id="1921" width="32" height="32" xmlns:xlink="http://www.w3.org/1999/xlink"><defs><style type="text/css">@font-face { font-family: feedback-iconfont; src: url("//at.alicdn.com/t/font_1031158_u69w8yhxdu.woff2?t=1630033759944") format("woff2"), url("//at.alicdn.com/t/font_1031158_u69w8yhxdu.woff?t=1630033759944") format("woff"), url("//at.alicdn.com/t/font_1031158_u69w8yhxdu.ttf?t=1630033759944") format("truetype"); }
</style></defs><path d="M416 128v-32c0.64-27.328 9.984-49.984 28.032-68.032C461.952 10.048 484.672 0.64 512 0h128c9.344 0 17.024 3.008 23.04 8.96 5.952 6.016 8.96 13.696 8.96 23.04a31.168 31.168 0 0 1-8.96 23.04A31.168 31.168 0 0 1 640 64H512a31.168 31.168 0 0 0-23.04 8.96 31.168 31.168 0 0 0-8.96 23.04V128h320c25.984 0.64 48 9.344 66.048 25.984 17.92 16.704 27.648 38.08 28.992 64a94.784 94.784 0 0 1-83.008 100.992l-40 580.992a61.888 61.888 0 0 1-20.032 42.56 66.816 66.816 0 0 1-43.968 17.472H316.032a66.56 66.56 0 0 1-44.032-17.536 61.952 61.952 0 0 1-19.968-42.496l-40-580.928a94.784 94.784 0 0 1-83.008-100.992c1.28-25.984 10.944-47.36 28.992-64 17.92-16.704 40-25.408 65.984-26.048h192zM276.032 320l40 576h392l4.992-71.04c-53.376-14.656-95.36-43.136-126.08-85.44-30.656-42.368-44.672-91.2-41.984-146.56 4.672-55.296 25.152-101.952 61.504-139.968 36.352-38.016 81.856-60.672 136.512-68.032L747.968 320H275.968zM224 256h576a31.168 31.168 0 0 0 23.04-8.96 31.168 31.168 0 0 0 8.96-23.04 31.168 31.168 0 0 0-8.96-23.04 31.168 31.168 0 0 0-23.04-8.96h-576a31.168 31.168 0 0 0-23.04 8.96 31.168 31.168 0 0 0-8.96 23.04c0 9.344 3.008 17.024 8.96 23.04 6.016 5.952 13.696 8.96 23.04 8.96z m492.992 504l22.016-308.992a160.448 160.448 0 0 0-90.496 50.496c-23.68 26.304-36.8 58.176-39.488 95.488a152.96 152.96 0 0 0 26.048 100.032c19.968 29.312 47.36 50.304 81.984 62.976z" fill="#f97070" p-id="1922"></path></svg>