<?xml version="1.0" standalone="no"?><!DOCTYPE svg PUBLIC "-//W3C//DTD SVG 1.1//EN" "http://www.w3.org/Graphics/SVG/1.1/DTD/svg11.dtd"><svg t="1658044219629" class="icon" viewBox="0 0 1024 1024" version="1.1" xmlns="http://www.w3.org/2000/svg" p-id="25359" width="32" height="32" xmlns:xlink="http://www.w3.org/1999/xlink"><defs><style type="text/css">@font-face { font-family: feedback-iconfont; src: url("//at.alicdn.com/t/font_1031158_u69w8yhxdu.woff2?t=1630033759944") format("woff2"), url("//at.alicdn.com/t/font_1031158_u69w8yhxdu.woff?t=1630033759944") format("woff"), url("//at.alicdn.com/t/font_1031158_u69w8yhxdu.ttf?t=1630033759944") format("truetype"); }
</style></defs><path d="M350.72 399.36c-37.888-10.752-163.84-20.992-192.512 29.184-1.536 1.024-3.072 2.56-4.096 4.608-20.48 40.448-23.04 69.632-5.12 113.664 24.064 59.392 72.704 109.056 124.416 145.92 48.64 34.816 108.544 56.32 168.448 46.592 51.712-8.192 116.736-43.008 121.344-101.376 4.096-52.736-26.112-112.128-59.904-150.528-37.888-43.008-97.28-72.704-152.576-88.064z m130.048 104.96c-35.328 9.728-70.144 19.968-104.448 31.232 13.312-27.136 27.136-54.272 39.424-80.384 25.6 13.824 47.104 29.696 65.024 49.152z m-88.576-61.44c-13.824 29.184-29.184 58.88-43.52 89.088-26.624-37.376-52.224-75.264-73.216-116.224 40.448-1.536 80.384 10.24 116.736 27.136z m-184.832-14.336c12.8-4.608 26.624-7.68 39.936-9.728 20.992 43.008 47.104 82.944 74.752 121.344-32.768-16.384-65.024-33.792-97.28-51.712-8.192-4.608-33.792-14.848-38.912-23.552-13.312-23.552 7.68-31.232 21.504-36.352z m-2.56 162.304c-26.624-35.328-44.032-71.168-38.912-109.568 6.656 6.656 14.848 12.288 23.04 17.408 34.816 21.504 72.192 40.96 108.544 59.904 1.536 0.512 3.072 1.536 4.608 2.048-31.232 11.264-62.464 23.04-93.696 35.84-0.512-2.048-2.048-3.584-3.584-5.632z m22.016 26.624c33.28-13.312 66.56-26.112 100.352-37.888-13.312 32.256-23.552 65.024-28.672 98.816-26.624-16.896-50.688-37.888-71.68-60.928z m139.776 91.648c-14.848-4.096-29.184-9.728-43.52-16.896 4.608-36.864 16.384-73.216 31.232-108.032 29.696 41.472 59.392 83.456 82.944 129.024-23.552 3.584-47.616 2.048-70.656-4.096z m108.544-6.656l-12.288 4.608c-18.432-36.864-40.448-70.656-63.488-104.448 43.008 17.408 86.016 34.816 126.464 57.856-9.216 17.408-26.112 31.744-50.688 41.984z m58.88-68.096c-47.616-26.112-98.304-45.568-148.48-66.048-3.584-1.536-7.168-3.072-11.264-4.608 39.936-13.312 80.384-25.088 120.832-36.352 1.536-0.512 2.56-1.024 3.584-1.536 13.312 18.944 23.552 40.96 30.72 66.048 4.608 15.872 6.144 30.208 4.608 42.496z" fill="#f97070" p-id="25360"></path><path d="M948.224 237.056c-16.384-6.144-96.768 2.56-100.352-9.216-4.608-16.384-29.696-8.704-25.088 7.68 18.432 68.608 109.056-15.872 137.728 50.688 18.944 43.52-27.648 72.192-44.032 103.424-11.264 21.504-6.144 44.032-6.144 67.072-1.024 155.648-172.032 256-308.736 288.768 2.56-6.144 4.608-12.8 6.656-19.968 0.512-1.024 0.512-2.56 0.512-3.584 11.776-12.8 20.992-27.136 27.648-43.008 22.528-55.808-3.072-104.96-31.744-153.088-34.304-57.344-86.528-107.52-145.408-139.264-58.88-31.232-119.808-63.488-187.392-67.072-1.024 0-2.56-0.512-4.096-0.512-2.56 0-5.12 0.512-7.68 0.512 21.504-39.936 46.08-82.944 85.504-105.472 44.032-25.6 93.696-47.104 143.36-59.392 101.376-26.112 208.384-17.408 294.4 45.056 13.312 9.728 31.744-9.216 17.92-19.456-90.624-65.536-196.096-78.336-304.128-54.272-57.344 12.288-114.688 37.376-165.376 66.048-47.616 27.136-75.776 81.92-101.376 128.512-22.016 0-42.496 0.512-66.048 10.24-44.544 18.432-89.6 53.248-104.96 100.352-2.56 8.704-4.608 17.408-5.12 26.112-26.112 84.48-27.648 174.592-2.56 259.584 14.336 47.616 36.864 99.328 70.656 139.264-16.896 35.84-9.216 72.192 26.624 94.72 26.624 16.896 81.408 5.632 89.6-28.16 73.216 12.8 148.992-12.288 216.064-42.496 55.808-24.576 103.424-55.808 133.12-105.472h4.608c138.24-28.16 326.656-130.048 343.552-287.744 1.536-14.848 0.512-30.208 1.024-45.056 1.536-26.624 10.24-43.008 24.576-63.488 16.384-23.552 33.28-55.808 28.16-85.504-4.096-24.576-17.92-46.592-41.472-55.808zM186.88 931.328c-13.312 2.56-20.992 0.512-31.744-8.192-15.872-13.312-17.92-29.184-12.8-46.08 16.384 14.848 34.304 26.624 55.296 34.816 5.12 2.048 10.24 3.584 14.848 5.12-3.072 10.24-16.896 12.288-25.6 14.336z m228.864-61.952c-71.68 28.672-157.696 49.664-229.376 8.704-14.336-8.192-27.136-18.432-38.4-30.72l-0.512-0.512c-39.936-42.496-64-104.448-76.8-157.184-12.8-51.712-14.848-104.96-7.168-157.184 6.144 18.432 14.336 36.864 22.528 52.736 29.184 56.32 81.408 99.328 132.608 135.168 47.616 33.28 97.28 69.12 156.16 76.8 52.736 7.168 108.032 0.512 156.672-20.992 12.288-5.12 24.064-11.776 35.84-19.456-30.72 57.856-89.088 87.552-151.552 112.64z m146.944-139.776c-49.664 36.864-115.2 49.664-176.128 43.008-64-7.168-122.368-50.176-172.544-88.064-53.248-40.448-98.816-86.528-120.832-151.04-25.088-73.728-6.144-131.072 64-169.472 40.448-22.016 70.144-13.824 112.128-17.408 64 2.56 122.88 34.816 178.176 64.512 57.344 30.72 107.008 80.384 139.264 136.192 18.944 32.768 39.936 67.584 31.232 106.496-7.68 31.232-29.696 56.832-55.296 75.776z" fill="#f97070" p-id="25361"></path><path d="M907.264 306.688c-16.384 5.12-8.704 30.208 7.68 25.088 15.872-5.12 8.704-30.208-7.68-25.088zM812.032 397.312c-16.384 5.12-8.704 30.208 7.68 25.088 16.384-4.608 8.704-29.696-7.68-25.088zM854.016 513.024c16.384-5.12 8.704-30.208-7.68-25.088-15.872 4.608-8.192 30.208 7.68 25.088zM822.272 562.688c16.384-5.12 8.704-30.208-7.68-25.088s-8.704 30.208 7.68 25.088zM751.616 632.32c16.384-5.12 8.704-30.208-7.68-25.088-15.872 5.12-8.704 30.208 7.68 25.088zM698.368 566.272c16.384-5.12 8.704-30.208-7.68-25.088-16.384 4.608-8.704 29.696 7.68 25.088zM689.664 692.736c16.384-5.12 8.704-30.208-7.68-25.088-15.872 4.608-8.704 29.696 7.68 25.088z" fill="#f97070" p-id="25362"></path></svg>