<?xml version="1.0" standalone="no"?><!DOCTYPE svg PUBLIC "-//W3C//DTD SVG 1.1//EN" "http://www.w3.org/Graphics/SVG/1.1/DTD/svg11.dtd"><svg t="1658044027860" class="icon" viewBox="0 0 1024 1024" version="1.1" xmlns="http://www.w3.org/2000/svg" p-id="16622" width="32" height="32" xmlns:xlink="http://www.w3.org/1999/xlink"><defs><style type="text/css">@font-face { font-family: feedback-iconfont; src: url("//at.alicdn.com/t/font_1031158_u69w8yhxdu.woff2?t=1630033759944") format("woff2"), url("//at.alicdn.com/t/font_1031158_u69w8yhxdu.woff?t=1630033759944") format("woff"), url("//at.alicdn.com/t/font_1031158_u69w8yhxdu.ttf?t=1630033759944") format("truetype"); }
</style></defs><path d="M321.237024 628.86492c14.673998-64.339992 43.457994-122.472984 102.153987-159.72198 64.904992-41.199995 136.581983-54.180993 212.209973-50.229993 30.476996 1.693 61.517992 6.771999 91.429989 10.722998-65.467992-126.422984-238.16997-222.932972-421.596947-167.058978-181.167977 55.309993-288.965963 239.86497-248.329968 428.934945 40.634995 187.939976 212.209973 293.480963 366.286953 285.014964-4.514999-4.514999-7.336999-7.336999-9.593999-10.722999-90.866988-95.945988-121.907985-208.822973-92.559988-336.939957z m34.991996-328.473958c7.336999 1.693 12.979998 1.693 18.059997 3.385999 13.545998 4.514999 26.526997 1.694 39.507995-1.127999 6.207999-1.13 12.415998 1.128 20.881998 1.692999-3.386 5.643999-5.079999 9.029999-7.901999 14.109999 7.337999 6.771999 14.674998 13.544998 24.269997 22.009997-13.545998 0-24.833997-2.821-34.428996 0.565-9.029999 3.386-15.801998 12.979998-24.832997 21.446997-7.900999-26.526997-30.475996-19.189998-50.229993-19.189998 0-1.128-0.564-2.257-0.564-3.949999 7.900999-7.336999 15.801998-14.109998 23.703997-20.882997-3.386-5.079999-5.643999-10.722999-8.465999-18.059998z" p-id="16623" fill="#f97070"></path><path d="M898.605951 567.345928c-80.70799-71.676991-177.217978-102.717987-293.481963-106.104987-15.802998 1.694-41.199995 3.387-66.032991 8.465999-59.260992 12.416998-112.877986 36.120995-143.919982 91.430989-33.297996 60.389992-46.278994 126.422984-36.683996 195.277975 18.059998 128.115984 111.183986 229.705971 238.17097 259.618967 121.342985 28.782996 250.587968-22.011997 323.393959-126.987984 36.120995-52.487993 54.180993-111.183986 54.745993-173.830978 0.564-61.517992-32.169996-108.926986-76.19199-147.869981z m-9.029999 250.587968c-46.279994 30.476996-98.768987 40.071995-167.623979 40.635995-93.687988-3.949999-190.197976-35.555995-267.519966-114.005986-26.525997-27.089997-46.279994-59.259992-50.793993-97.638987-6.772999-54.745993 22.009997-102.153987 77.88499-129.809984 60.389992-29.911996 124.729984-33.297996 190.198976-23.702997 85.786989 12.415998 162.542979 45.714994 224.061971 108.925987 20.317997 20.882997 36.119995 45.150994 45.714994 73.36999 18.624998 55.309993-1.129 109.491986-51.923993 142.225982zM717.435974 98.339988c-99.331987 2.822-218.417972 62.082992-240.992969 120.779984 9.029999-0.565 18.059998-2.258 27.089996-2.258 9.594999 0 19.753997 0.564 28.783996 2.822 78.44999 19.752997 152.384981 11.286999 223.496972-27.654996 46.844994-25.961997 89.173989-57.003993 125.294984-99.896988-15.238998-1.129-28.219996-1.693-41.199995-3.949999-29.912996-4.515999-54.181993-19.753997-77.32199-38.379995C729.289972 22.148997 692.603977 1.83 648.017983 0.138c-88.609989-3.387-174.959978 56.438993-204.872974 142.224982-6.772999 19.189998-10.159999 39.507995-15.238998 58.696992 1.129 0.564 2.822 1.129 3.950999 1.129 78.44999-81.83699 170.444978-125.293984 285.579964-103.847986z" p-id="16624" fill="#f97070"></path><path d="M686.395978 711.26491c-3.387 1.129-5.643999 7.336999-6.207999 11.851998-4.515999 27.089997-7.901999 54.745993-12.416999 81.83699-2.258 12.979998 2.822 20.317997 14.673998 22.574997 16.931998 2.822 34.427996 5.079999 51.359994 5.643999 14.672998 0.564 29.911996-1.693 44.585994-2.821999 0.564-2.258 1.693-3.949999 2.258-6.208-26.526997-36.684995-53.616993-72.805991-80.70799-108.926986-2.257-3.386-9.594999-5.643999-13.544998-3.949999z m-27.089997-6.208c-7.337999-1.129-16.367998-1.693-22.575997 1.129-22.575997 11.851998-44.022994 25.396997-66.033991 38.377995-11.851998 6.772999-23.139997 14.109998-35.555996 21.446998 1.693 3.386 2.257 5.643999 3.386 6.771999 27.089997 20.882997 57.567993 34.427996 90.866988 41.764995 10.722999 2.258 14.109998-5.643999 15.801998-14.109999 5.079999-25.960997 10.723999-51.922993 15.238998-77.88499 1.129-6.207999 0.564-17.495998-1.129-17.495998z m41.199995-66.032991c5.642999 2.257 14.109998 2.257 19.752998-0.565 27.654996-15.237998 54.745993-31.605996 81.835989-47.972994 7.336999-4.514999 14.109998-9.029999 21.446997-13.544998-11.851998-18.059998-78.44999-51.359993-97.074987-47.408994-4.514999 1.13-10.722999 7.901999-11.851999 12.980998-6.207999 26.526997-11.287999 53.616993-16.366998 80.70799-1.129 5.079999-0.564 14.673998 2.257 15.802998z m-27.655996-6.772999c2.822-0.564 5.079999-7.900999 5.643999-12.416999 3.950999-25.960997 7.336999-52.487993 11.287998-78.44999 2.822-16.930998 0-23.703997-16.931997-25.960996-27.089997-2.822-54.744993-2.822-82.39999-3.387-3.386 0-7.336999 2.822-14.109998 5.643999 28.219996 38.378995 54.180993 74.499991 81.27199 110.055986 2.822 3.386 10.722999 5.643999 15.237998 4.515z m-39.506995 54.745993v-4.516c-4.514999-1.693-9.029999-4.514999-13.544999-4.514999-51.359993-1.128-103.282987-1.128-154.64198-1.693-10.723999 0-14.673998 6.207999-8.465999 14.673998 10.158999 14.673998 20.317997 29.347996 32.169996 42.893995 15.238998 16.930998 26.525997 17.495998 46.279994 6.771999 19.189998-10.158999 38.377995-20.881997 58.131993-31.040996 12.979998-7.336999 26.525997-14.673998 40.070995-22.574997z m91.995988-26.526997c5.642999 1.693 10.722999 3.950999 16.366998 4.515 12.415998 0.565 24.267997 0.565 36.684995 0.565 36.684995 0.564 73.369991 1.693 110.055986 1.692999 17.495998 0 20.881997-5.079999 11.286999-19.753997-10.158999-14.673998-21.445997-28.782996-33.298996-41.763995-7.900999-9.029999-19.752997-14.673998-31.604996-8.465999-36.684995 19.189998-72.805991 38.942995-108.926986 58.131993 0 1.693-0.564 3.386-0.564 5.079999zM488.860003 572.989927c44.586994 21.446997 89.172989 42.329995 133.759983 63.775992 5.643999 2.822 11.851998 2.822 17.495998 4.515l1.693-3.386-8.465999-11.851998-52.487994-67.726992c-32.733996-42.328995-41.763995-43.457994-88.043989-15.802998-2.258 1.13-4.514999 2.822-6.207999 3.951-15.802998 11.851998-15.802998 18.059998 2.257 26.525996z m244.379969 132.066983c-4.514999-2.258-10.158999-1.693-19.753998-2.821999 29.912996 37.813995 55.874993 71.676991 82.96499 104.975987 4.514999 5.643999 13.545998 11.287999 20.317997 10.722998 28.219996-0.564 49.101994-15.801998 69.983991-35.555995-6.207999-4.514999-9.593999-9.029999-14.673998-11.287999l-138.839982-66.032992z m-122.471985-43.457994c4.514999 0 8.465999-0.564 12.979999-0.564 0.565-1.693 0.565-2.822 1.13-4.514999-4.515999-2.258-9.029999-5.079999-14.109999-7.336999-40.071995-18.059998-79.57899-36.120995-119.649984-53.616994-38.378995-17.495998-49.665994-10.159999-51.359994 32.733996-0.564 19.189998 6.208999 27.089997 25.961997 27.654997 48.537994 2.258 96.509988 3.949999 145.047981 5.643999z m279.935965 25.397997c-48.536994-2.258-97.074988-3.387-145.047982-5.08-3.949999 0-7.336999 0.564-11.286998 1.129-0.565 1.129-0.565 2.257-1.13 3.95 4.515999 2.822 9.030999 5.643999 13.545998 7.901999 40.635995 18.624998 81.83599 36.684995 123.036985 54.745993 35.555995 15.801998 45.714994 9.593999 49.100993-29.912996 1.694-23.703997-5.642999-32.169996-28.218996-32.733996z" p-id="16625" fill="#f97070"></path></svg>