<?xml version="1.0" standalone="no"?><!DOCTYPE svg PUBLIC "-//W3C//DTD SVG 1.1//EN" "http://www.w3.org/Graphics/SVG/1.1/DTD/svg11.dtd"><svg t="1658044286457" class="icon" viewBox="0 0 1024 1024" version="1.1" xmlns="http://www.w3.org/2000/svg" p-id="27062" width="32" height="32" xmlns:xlink="http://www.w3.org/1999/xlink"><defs><style type="text/css">@font-face { font-family: feedback-iconfont; src: url("//at.alicdn.com/t/font_1031158_u69w8yhxdu.woff2?t=1630033759944") format("woff2"), url("//at.alicdn.com/t/font_1031158_u69w8yhxdu.woff?t=1630033759944") format("woff"), url("//at.alicdn.com/t/font_1031158_u69w8yhxdu.ttf?t=1630033759944") format("truetype"); }
</style></defs><path d="M602.331314 977.857726c86.815493-133.095642 147.204883-446.30241 147.204883-644.199452 0-36.904627-2.435797-74.912257-7.261434-112.919887l-1.332795-10.708317 0.413626-0.091916-0.689376-1.746421-0.137875-0.919169h-0.275751c-7.858893-24.128181-47.475068-83.460527-105.566537-126.064001C572.550245 35.663749 467.397334 8.410395 462.985324 7.261434L434.53705 0l10.202773 27.621022c0.091917 0.229792 9.329563 25.782685-2.711548 45.452897-8.640187 14.063283-26.839729 22.795386-54.001167 25.966519-89.343207 10.294691-108.507877 83.414568-106.301871 122.617118a897.476415 897.476415 0 0 0-7.215475 112.092635c0 197.943001 60.481307 511.195727 147.2968 644.291369l1.424711 2.114088-19.256586 43.476684h217.10767l-19.670212-44.349894 0.919169-1.424712zM391.51995 129.694717c37.272295-4.320093 63.146896-18.061667 76.980387-40.811094 9.237646-15.258202 11.075984-31.665365 10.386607-44.993313 33.963287 10.478524 97.156142 32.446659 137.553611 62.181769 49.175531 36.077375 79.324267 80.381311 90.308334 101.292402H649.57659c-5.285221-14.476909-13.741574-31.159822-26.747812-40.35151l-63.146897-44.533729s33.779453 43.154975 44.303937 63.330731a142.471164 142.471164 0 0 1 8.869978 21.554508h-78.910641c-3.722634-15.166285-7.766976-31.113864-7.766976-31.113864l-16.866748-53.771375-6.893766 57.907635-2.527714 26.977604H412.201248c2.711548-8.502311 5.790763-17.09654 8.456353-21.600467 6.296306-10.570441 44.303936-63.33073 44.303936-63.33073l-63.146897 44.579687c-13.052197 9.191688-21.462591 25.874602-26.747812 40.35151H312.747184c2.251964-24.312015 14.890535-70.316413 78.772766-77.669764zM305.347875 333.750191c0-31.205781 1.838338-63.284772 5.423096-95.547597H394.047664l0.321709 0.045959v-0.045959h119.216193v0.045959l0.367668-0.045959h116.274853v0.045959l0.321709-0.045959h82.77115c3.584758 32.216866 5.423096 64.295857 5.423096 95.547597 0 189.578565-58.597011 491.203806-137.783403 620.347022H443.177236C363.990844 824.908038 305.347875 523.374714 305.347875 333.750191z" p-id="27063" fill="#f97070"></path><path d="M572.917912 936.21938c72.47646-125.236749 126.431668-397.172838 130.705803-581.604058H321.938872c4.274135 184.477178 58.183385 456.413267 130.79772 581.695975l120.18132-0.091917z" p-id="27064" fill="#f97070"></path></svg>